<svg width="191" height="57" viewBox="0 0 191 57" fill="none" xmlns="http://www.w3.org/2000/svg">
<rect x="0.506836" y="0.382812" width="190.325" height="56.1216" fill="white"/>
<path d="M16.9867 11.3794V40.6437H9.84473V11.3794H16.9867Z" fill="#7AE0FA"/>
<path d="M48.6701 11.3794V17.1686H41.1009V40.6437H33.8449V17.1686H26.2314V11.3794H48.6701Z" fill="#005FB5"/>
<path d="M55.7944 40.6436H49.3232V18.9892H55.4368V23.0183C56.3766 20.0162 58.0031 18.5166 60.3194 18.5166C60.6485 18.5166 61.0504 18.5378 61.5282 18.5802V24.8845C60.1707 24.8845 59.1138 25.0844 58.3607 25.4843C57.6076 25.8842 56.9905 26.6022 56.5127 27.6382C56.0349 28.6743 55.7976 30.0709 55.7976 31.8279V40.6436H55.7944Z" fill="#005FB5"/>
<path d="M84.9727 40.6439H78.5015C78.2927 39.7866 78.1883 38.6566 78.1883 37.257C77.0554 38.799 75.9257 39.8259 74.8024 40.3319C73.6759 40.8378 72.3974 41.0922 70.9671 41.0922C68.8502 41.0922 67.1414 40.5409 65.8345 39.4412C64.5308 38.3415 63.8789 36.8601 63.8789 35.0031C63.8789 33.6459 64.2586 32.3947 65.0181 31.2526C65.7776 30.1105 66.999 29.2138 68.6856 28.5625C70.3691 27.9112 73.4417 27.4295 77.8971 27.1144V25.8724C77.8971 23.7699 76.8023 22.7217 74.6157 22.7217C72.2804 22.7217 70.9766 23.773 70.7077 25.8724L64.5498 25.3149C64.9516 22.8581 66.1699 21.1131 68.1983 20.0831C70.2298 19.0531 72.5272 18.5381 75.0967 18.5381C76.6346 18.5381 78.0838 18.7108 79.4414 19.0531C80.7989 19.3954 81.8589 19.9104 82.6216 20.5951C83.3842 21.2797 83.8968 22.0068 84.1658 22.7702C84.4348 23.5336 84.5677 24.8666 84.5677 26.7691V36.5875C84.5677 38.4778 84.7038 39.829 84.9727 40.6439ZM77.894 30.2681C73.236 30.7104 70.907 32.0615 70.907 34.3215C70.907 35.0788 71.1507 35.7332 71.6443 36.2815C72.1348 36.8329 72.8341 37.1055 73.7423 37.1055C74.9194 37.1055 75.9036 36.639 76.701 35.7029C77.4984 34.7668 77.894 33.6126 77.894 32.2402V30.2681Z" fill="#005FB5"/>
<path d="M109.962 32.5188C109.708 35.0787 108.652 37.1448 106.794 38.7261C104.937 40.3045 102.535 41.0952 99.5951 41.0952C96.3991 41.0952 93.798 40.0833 91.7918 38.0627C89.7824 36.039 88.7793 33.3368 88.7793 29.9468C88.7793 26.5599 89.8045 23.8122 91.8582 21.7037C93.9119 19.5953 96.6554 18.541 100.089 18.541C102.851 18.541 105.139 19.3347 106.952 20.9222C108.765 22.5096 109.769 24.4939 109.965 26.8811L103.74 27.2234C103.532 24.6211 102.351 23.3215 100.203 23.3215C97.5605 23.3215 96.2377 25.3936 96.2377 29.5379C96.2377 32.2977 96.608 34.0487 97.3453 34.7909C98.0857 35.5331 98.9844 35.9057 100.044 35.9057C102.104 35.9057 103.335 34.6546 103.74 32.1553L109.962 32.5188Z" fill="#005FB5"/>
<path d="M128.803 26.3357L136.163 40.6437H128.799L124.078 30.8344L120.154 35.1544V40.6437H113.86V11.3794H120.154V28.9168L121.138 27.7383C121.556 27.1961 121.907 26.7598 122.189 26.4296L128.787 18.9893H135.29L128.803 26.3357Z" fill="#005FB5"/>
<path d="M158.51 30.8888H143.954C143.938 31.2735 143.931 31.6098 143.931 31.8976C143.931 33.4426 144.362 34.6059 145.219 35.3936C146.077 36.1782 147.105 36.572 148.298 36.572C150.523 36.572 151.858 35.436 152.307 33.1639L158.355 33.5941C156.668 38.5957 153.241 41.098 148.077 41.098C145.824 41.098 143.909 40.6648 142.333 39.8014C140.758 38.938 139.46 37.6747 138.438 36.0176C137.416 34.3605 136.903 32.3732 136.903 30.0587C136.903 26.6143 137.929 23.8363 139.982 21.7187C142.036 19.6041 144.675 18.5469 147.9 18.5469C150.811 18.5469 153.307 19.5284 155.39 21.4945C157.469 23.4515 158.51 26.587 158.51 30.8888ZM143.935 27.1808H151.975C151.766 24.2089 150.488 22.7214 148.146 22.7214C145.634 22.7214 144.232 24.2059 143.935 27.1808Z" fill="#005FB5"/>
<path d="M169.194 40.6436H162.723V18.9892H168.836V23.0183C169.776 20.0162 171.403 18.5166 173.719 18.5166C174.048 18.5166 174.45 18.5378 174.928 18.5802V24.8845C173.57 24.8845 172.513 25.0844 171.76 25.4843C171.007 25.8842 170.39 26.6022 169.912 27.6382C169.434 28.6743 169.197 30.0709 169.197 31.8279V40.6436H169.194Z" fill="#005FB5"/>
</svg>
