<svg width="167" height="31" viewBox="0 0 167 31" fill="none" xmlns="http://www.w3.org/2000/svg">
<path d="M8.06486 0.640625V29.905H0.922852V0.640625H8.06486Z" fill="white"/>
<path d="M39.7487 0.640625V6.42988H32.1795V29.905H24.9236V6.42988H17.3101V0.640625H39.7487Z" fill="#7AE0FA"/>
<path d="M46.872 29.9048H40.4009V8.25042H46.5145V12.2796C47.4543 9.2774 49.0808 7.77783 51.3971 7.77783C51.7262 7.77783 52.1281 7.79904 52.6059 7.84145V14.1457C51.2484 14.1457 50.1915 14.3456 49.4383 14.7455C48.6852 15.1454 48.0682 15.8634 47.5903 16.8995C47.1125 17.9355 46.8752 19.3321 46.8752 21.0892V29.9048H46.872Z" fill="#7AE0FA"/>
<path d="M76.0508 29.9051H69.5797C69.3708 29.0478 69.2664 27.9178 69.2664 26.5182C68.1336 28.0602 67.0039 29.0872 65.8805 29.5931C64.754 30.099 63.4756 30.3535 62.0453 30.3535C59.9283 30.3535 58.2195 29.8021 56.9126 28.7024C55.6089 27.6027 54.957 26.1213 54.957 24.2643C54.957 22.9071 55.3368 21.656 56.0962 20.5139C56.8557 19.3718 58.0771 18.4751 59.7637 17.8237C61.4472 17.1724 64.5198 16.6907 68.9753 16.3757V15.1336C68.9753 13.0312 67.8804 11.983 65.6938 11.983C63.3585 11.983 62.0548 13.0342 61.7858 15.1336L55.6279 14.5762C56.0298 12.1193 57.2481 10.3743 59.2764 9.34433C61.308 8.31432 63.6053 7.79932 66.1748 7.79932C67.7127 7.79932 69.162 7.97199 70.5195 8.31432C71.877 8.65665 72.9371 9.17165 73.6997 9.8563C74.4623 10.541 74.9749 11.268 75.2439 12.0314C75.5129 12.7949 75.6458 14.1278 75.6458 16.0303V25.8487C75.6458 27.7391 75.7819 29.0902 76.0508 29.9051ZM68.9721 19.5293C64.3141 19.9716 61.9851 21.3227 61.9851 23.5827C61.9851 24.34 62.2288 24.9944 62.7225 25.5427C63.2129 26.0941 63.9122 26.3667 64.8204 26.3667C65.9976 26.3667 66.9817 25.9002 67.7791 24.9641C68.5766 24.028 68.9721 22.8738 68.9721 21.5015V19.5293Z" fill="#7AE0FA"/>
<path d="M101.04 21.7801C100.787 24.3399 99.7302 26.406 97.8727 27.9874C96.0152 29.5657 93.6135 30.3564 90.6737 30.3564C87.4777 30.3564 84.8766 29.3446 82.8704 27.3239C80.861 25.3003 79.8579 22.598 79.8579 19.2081C79.8579 15.8212 80.8832 13.0735 82.9368 10.965C84.9905 8.85649 87.734 7.80225 91.1674 7.80225C93.9299 7.80225 96.2177 8.59596 98.0309 10.1834C99.8441 11.7708 100.847 13.7551 101.043 16.1423L94.8191 16.4846C94.6102 13.8823 93.4299 12.5827 91.2813 12.5827C88.6391 12.5827 87.3163 14.6548 87.3163 18.7991C87.3163 21.5589 87.6866 23.3099 88.4239 24.0521C89.1643 24.7944 90.063 25.167 91.1231 25.167C93.1831 25.167 94.4141 23.9158 94.8191 21.4165L101.04 21.7801Z" fill="#7AE0FA"/>
<path d="M119.88 15.5969L127.241 29.905H119.877L115.156 20.0957L111.232 24.4156V29.905H104.938V0.640625H111.232V18.178L112.216 16.9996C112.634 16.4573 112.985 16.0211 113.267 15.6909L119.864 8.25057H126.367L119.88 15.5969Z" fill="#7AE0FA"/>
<path d="M149.588 20.15H135.032C135.016 20.5348 135.01 20.871 135.01 21.1588C135.01 22.7038 135.44 23.8671 136.297 24.6548C137.155 25.4394 138.183 25.8332 139.376 25.8332C141.601 25.8332 142.936 24.6972 143.386 22.4251L149.433 22.8553C147.746 27.8569 144.319 30.3592 139.155 30.3592C136.902 30.3592 134.987 29.926 133.412 29.0626C131.836 28.1992 130.538 26.936 129.516 25.2789C128.494 23.6218 127.981 21.6344 127.981 19.32C127.981 15.8755 129.007 13.0975 131.06 10.9799C133.114 8.86538 135.753 7.80811 138.978 7.80811C141.889 7.80811 144.386 8.78964 146.468 10.7557C148.547 12.7128 149.588 15.8482 149.588 20.15ZM135.013 16.442H143.053C142.845 13.4701 141.566 11.9827 139.224 11.9827C136.712 11.9827 135.31 13.4671 135.013 16.442Z" fill="#7AE0FA"/>
<path d="M160.271 29.9048H153.8V8.25042H159.914V12.2796C160.854 9.2774 162.48 7.77783 164.797 7.77783C165.126 7.77783 165.528 7.79904 166.005 7.84145V14.1457C164.648 14.1457 163.591 14.3456 162.838 14.7455C162.085 15.1454 161.468 15.8634 160.99 16.8995C160.512 17.9355 160.275 19.3321 160.275 21.0892V29.9048H160.271Z" fill="#7AE0FA"/>
</svg>
