<?xml version="1.0" encoding="utf-8"?>
<!-- Generator: Adobe Illustrator 24.3.0, SVG Export Plug-In . SVG Version: 6.00 Build 0)  -->
<svg version="1.1" id="Layer_1" xmlns="http://www.w3.org/2000/svg" xmlns:xlink="http://www.w3.org/1999/xlink" x="0px" y="0px"
	 viewBox="0 0 57.6 51" style="enable-background:new 0 0 57.6 51;" xml:space="preserve">
<style type="text/css">
	.st0{fill:#FFFFFF;}
	.st1{fill:#808080;}
	.st2{fill:#005FB5;}
	.st3{fill:none;stroke:#005FB5;stroke-width:1.5;}
</style>
<g>
	<path class="st0" d="M28.8,0C37,0,45.3,0,53.5,0c1,0,1.1,0.1,1.1,1c0,8.2,0,16.4,0,24.6c0,0.9-0.2,1-1.1,1c-16.5,0-33,0-49.5,0
		c-1,0-1.1-0.1-1.1-1.1c0-8.2,0-16.4,0-24.6C2.9,0.1,3.1,0,4.1,0C12.3,0,20.5,0,28.8,0z M4.4,1.3c0,8,0,16,0,24.1
		c16.3,0,32.6,0,48.8,0c0-8,0-16,0-24.1C36.9,1.3,20.7,1.3,4.4,1.3z"/>
	<path class="st0" d="M28.9,3.4c5.6,0,11.3,0,16.9,0c0.9,0,1,0.1,1.1,0.9C47,5.8,48.4,7,50,7.2c0.9,0.1,1,0.2,1,1
		c0,3.5,0,6.9,0,10.4c0,0.8-0.1,0.9-1,1c-1.8,0.2-3,1.4-3.2,3c0,0.5-0.3,0.7-0.9,0.8c-0.1,0-0.2,0-0.4,0c-11.3,0-22.5,0-33.8,0
		c-0.2,0-0.3,0-0.5,0c-0.5,0-0.7-0.3-0.8-0.7c-0.2-1.8-1.4-2.9-3.3-3.1c-0.6,0-0.8-0.3-0.8-0.9c0-2.5,0-5,0-7.5c0-1.1,0-2.1,0-3.2
		c0-0.5,0.2-0.8,0.8-0.8c2.1-0.2,3.2-1.2,3.5-3.1c0.1-0.5,0.3-0.7,0.9-0.7c1.7,0,3.3,0,5,0C20.8,3.4,24.8,3.4,28.9,3.4z M8,18.3
		c0.1,0,0.1,0,0.2,0.1c1.9,0.4,3.2,1.5,3.7,3.3c0.1,0.4,0.3,0.5,0.7,0.5c5.1,0,10.1,0,15.2,0c5.7,0,11.5,0,17.2,0
		c0.3,0,0.5-0.1,0.6-0.4c0.5-1.7,1.7-2.8,3.5-3.3c0.1,0,0.3-0.1,0.4-0.1c0-0.1,0-0.1,0-0.1c0-3.1,0-6.3,0-9.4c0-0.3-0.2-0.3-0.4-0.4
		C47.5,8,46.4,7,45.8,5.6c-0.1-0.3-0.2-0.6-0.3-0.8c-11.1,0-22.2,0-33.2,0C11.7,6.8,10.3,8,8,8.5C8,11.8,8,15,8,18.3z"/>
	<path class="st0" d="M28.8,7.8c3.3,0,6,2.5,6,5.5c0,3-2.7,5.5-6,5.5c-3.3,0-6-2.5-6-5.5C22.8,10.4,25.5,7.9,28.8,7.8z M28.7,9.2
		c-2.5,0.1-4.5,2-4.5,4.3c0,2.4,2.2,4.2,4.7,4.1c2.4-0.1,4.4-2,4.4-4.3C33.3,11,31.2,9.1,28.7,9.2z"/>
	<path class="st0" d="M14.9,15.6c-1.3,0-2.4-1-2.4-2.2c0-1.2,1.1-2.2,2.4-2.3c1.3,0,2.5,1,2.5,2.3C17.3,14.6,16.2,15.6,14.9,15.6z
		 M14.9,12.4c-0.5,0-1,0.4-1,0.9c0,0.5,0.5,0.9,1,0.9c0.5,0,1-0.5,1-1C15.9,12.8,15.4,12.4,14.9,12.4z"/>
	<path class="st0" d="M45.1,13.4c0,1.2-1.1,2.2-2.4,2.2c-1.3,0-2.4-1-2.4-2.2c0-1.2,1.1-2.3,2.5-2.3S45.1,12.1,45.1,13.4z
		 M43.7,13.4c0-0.5-0.5-0.9-1-0.9c-0.5,0-1,0.4-1,0.9c0,0.5,0.5,0.9,1,0.9C43.2,14.3,43.7,13.9,43.7,13.4z"/>
	<path class="st0" d="M11.1,33.7c1.2-0.4,2.4-0.8,3.7-1c3-0.6,6-0.3,8.7,1c2,1,4.1,1.4,6.4,1.4c1.9,0,3.8,0.1,5.7,0.1
		c2.6,0,4.7,1,6.1,3.1c0,0.1,0.1,0.1,0.2,0.2c2.1-0.9,4.2-1.8,6.3-2.8c0.8-0.3,1.6-0.7,2.4-1c2.4-1,5.3-0.1,6.7,1.9
		c0.5,0.7,0.4,1.2-0.4,1.7c-6.3,3.8-12.5,7.6-18.9,11.2c-2.2,1.3-4.9,1.6-7.5,1.3c-2.3-0.3-4.5-1-6.7-1.5c-2.7-0.7-5.4-1.4-8-2.1
		c-1.1-0.3-2.1-0.2-3.1,0.3c-0.3,0.2-0.6,0.3-1,0.5c-0.7,0.3-1.3,0.6-1.2,1.5c0,0.5-0.4,0.9-1,0.8c-2.8,0-5.7-0.1-8.5-0.2
		C0.3,50.2,0,49.7,0,49c0.1-3.1,0.2-6.2,0.3-9.4c0.1-2.4,0.1-4.8,0.2-7.2C0.5,31.3,0.9,31,2,31c2.5,0.1,5.1,0.1,7.7,0.2
		c1.2,0,1.5,0.4,1.5,1.5C11.1,33,11.1,33.4,11.1,33.7z M54.9,37.2c-1-0.9-2.4-1.1-3.7-0.5c-2.7,1.2-5.3,2.3-8,3.5
		c-0.5,0.2-0.6,0.4-0.5,0.9c0.2,1-0.1,1.7-1.6,1.6c-3.8-0.1-7.6-0.2-11.4-0.3c-0.3,0-0.7,0-1-0.1c-0.5-0.1-0.9-0.5-0.9-1
		c0-0.5,0.4-0.9,1-1c0.2,0,0.4,0,0.6,0c3.4,0.1,6.8,0.2,10.3,0.3c0.2,0,0.5,0,0.7,0c-0.3-1.8-2.1-3.3-4.1-3.4
		c-1.2-0.1-2.5-0.1-3.7-0.1c-1.6,0-3.1-0.1-4.7-0.1c-1.9-0.1-3.6-0.8-5.3-1.6c-3.7-1.6-7.4-1.4-11.1,0.4c-0.4,0.2-0.5,0.4-0.5,0.8
		c-0.1,3.1-0.2,6.1-0.3,9.2c0,0.1,0,0.2,0.1,0.4c0.3-0.2,0.6-0.3,0.9-0.4c1.5-0.8,3.1-0.9,4.7-0.5c2.1,0.6,4.3,1.1,6.4,1.7
		c2.5,0.6,5,1.4,7.6,1.8c2.6,0.4,5.1,0,7.4-1.4c3.3-2,6.6-3.9,9.8-5.9C50.1,40.1,52.5,38.7,54.9,37.2z M8.5,48.3
		c0.1-5,0.3-10,0.5-15.2c-2.2,0-4.2,0-6.4,0c-0.1,5-0.3,10-0.5,15.2C4.3,48.3,6.4,48.3,8.5,48.3z"/>
</g>
</svg>
