<?xml version="1.0" encoding="utf-8"?>
<!-- Generator: Adobe Illustrator 24.3.0, SVG Export Plug-In . SVG Version: 6.00 Build 0)  -->
<svg version="1.1" id="Layer_1" xmlns="http://www.w3.org/2000/svg" xmlns:xlink="http://www.w3.org/1999/xlink" x="0px" y="0px"
	 viewBox="0 0 86.9 61" style="enable-background:new 0 0 86.9 61;" xml:space="preserve">
<style type="text/css">
	.st0{fill:#FFFFFF;}
	.st1{fill:#808080;}
	.st2{fill:#005FB5;}
	.st3{fill:none;stroke:#005FB5;stroke-width:1.5;}
</style>
<g>
	<path class="st0" d="M19.7,45.1c15.8,0,31.6,0,47.5,0c0-9.7,0-19.4,0-29c-15.8,0-31.6,0-47.5,0C19.7,25.8,19.7,35.4,19.7,45.1z
		 M22,42.9c0-1.8,0-3.6,0-5.4c2.7,0.1,5.3,3,5.5,5.4C25.6,42.9,23.8,42.9,22,42.9z M65,40.2c0,0.9,0,1.8,0,2.7c-1.9,0-3.7,0-5.5,0
		c0-2.3,2.9-5.2,5.5-5.4C65,38.4,65,39.3,65,40.2z M64.9,18.3c0,1.8,0,3.6,0,5.4c-2.4-0.1-5.4-2.9-5.5-5.4
		C61.3,18.3,63.1,18.3,64.9,18.3z M57.1,18.3c0.9,4.3,3.5,6.9,7.9,7.8c0,3,0,6,0,9c-4.3,0.9-7,3.4-7.9,7.8c-9.1,0-18.2,0-27.3,0
		c-0.9-4.3-3.5-6.9-7.9-7.8c0-3,0-6,0-9c4.4-0.9,7-3.4,7.9-7.8C38.9,18.3,48,18.3,57.1,18.3z M21.9,18.3c1.8,0,3.6,0,5.4,0
		c0,2.2-2.5,5.2-5.4,5.4C21.9,21.9,21.9,20.2,21.9,18.3z"/>
	<path class="st0" d="M42.9,40.7c2.4,0,4.2-0.6,5.7-1.8c4.3-3.3,5.2-9.8,2-14.4c-3.7-5.3-11-5.3-14.5,0.2c-2.5,3.9-2.5,8,0,11.9
		C37.8,39.2,40.3,40.6,42.9,40.7z M38.9,24.8c2.7-2.8,6.9-2.7,9.4,0.3c1.3,1.6,1.9,3.4,2,5.6c0,2.2-0.7,4.2-2.4,5.8
		c-2.6,2.6-6.5,2.5-9-0.1C35.9,33.3,35.9,27.9,38.9,24.8z"/>
	<path class="st0" d="M9.6,0.4c-0.5-0.6-1.5-0.6-2,0L0.3,8.1c-0.4,0.4-0.4,1.1,0.1,1.5c0.4,0.4,1.1,0.4,1.6-0.1L7.2,4v32.2
		c0,0.7,0.6,1.3,1.3,1.3s1.3-0.6,1.3-1.3V4l5.3,5.6c0.4,0.4,1.1,0.5,1.6,0.1c0.4-0.4,0.5-1.1,0.1-1.5L9.6,0.4z"/>
	<path class="st0" d="M86.5,51.3c-0.4-0.4-1.1-0.4-1.6,0.1L79.6,57V24.8c0-0.7-0.6-1.3-1.3-1.3c-0.7,0-1.3,0.6-1.3,1.3V57l-5.3-5.6
		c-0.4-0.4-1.1-0.5-1.6-0.1c-0.4,0.4-0.5,1.1-0.1,1.5l7.2,7.7c0.5,0.6,1.5,0.6,2,0l7.3-7.7C87,52.4,87,51.7,86.5,51.3z"/>
</g>
</svg>
