<?xml version="1.0" encoding="utf-8"?>
<!-- Generator: Adobe Illustrator 24.3.0, SVG Export Plug-In . SVG Version: 6.00 Build 0)  -->
<svg version="1.1" id="Layer_1" xmlns="http://www.w3.org/2000/svg" xmlns:xlink="http://www.w3.org/1999/xlink" x="0px" y="0px"
	 viewBox="0 0 64.6 57" style="enable-background:new 0 0 64.6 57;" xml:space="preserve">
<style type="text/css">
	.st0{fill:#FFFFFF;}
	.st1{fill:#808080;}
	.st2{fill:#005FB5;}
	.st3{fill:none;stroke:#005FB5;stroke-width:1.5;}
</style>
<g>
	<path class="st0" d="M5,20.2L24.1,2.7l19.7,17.5c0.2,0.2,0.5,0.3,0.8,0.3c0.3,0,0.6-0.1,0.9-0.4c0.4-0.5,0.4-1.2-0.1-1.6L24.9,0.3
		c-0.5-0.4-1.1-0.4-1.6,0L3.4,18.5c-0.5,0.4-0.5,1.2-0.1,1.6C3.8,20.6,4.5,20.6,5,20.2z"/>
	<path class="st0" d="M27.6,12.5c0.5,0.4,1.2,0.4,1.7-0.1c0.4-0.5,0.4-1.2-0.1-1.6l-4-3.5c-0.4-0.4-1.1-0.4-1.6,0l-10.6,9.5
		c-0.5,0.4-0.5,1.2-0.1,1.6c0.2,0.3,0.6,0.4,0.9,0.4c0.3,0,0.6-0.1,0.8-0.3l9.9-8.8L27.6,12.5z"/>
	<path class="st0" d="M9.8,18.7c-0.7,0-1.2,0.5-1.2,1.2V39c0,0.6,0.5,1.2,1.2,1.2h3.9c0.7,0,1.2-0.5,1.2-1.2c0-0.6-0.5-1.2-1.2-1.2
		H11v-18C11,19.2,10.5,18.7,9.8,18.7z"/>
	<path class="st0" d="M37.3,19.3v12.1c0,0.6,0.5,1.2,1.2,1.2s1.2-0.5,1.2-1.2V19.3c0-0.6-0.5-1.2-1.2-1.2S37.3,18.7,37.3,19.3z"/>
	<path class="st0" d="M62.7,26.1C62.7,26.1,62.7,26.1,62.7,26.1c0.7,0,1.2-0.5,1.2-1.1l0.7-11.4c0-0.4-0.1-0.8-0.5-1
		c-0.3-0.2-0.7-0.3-1.1-0.2l-10.7,3.4c-0.6,0.2-1,0.9-0.8,1.5c0.2,0.6,0.9,0.9,1.5,0.7l8.3-2.7L40.2,37.7l-8.9-9.1
		c-0.4-0.5-1.2-0.5-1.6-0.1L0.4,55c-0.4,0.3-0.5,0.8-0.3,1.3C0.3,56.7,0.7,57,1.2,57h61.4c0.7,0,1.2-0.5,1.2-1.2V31.2
		c0-0.6-0.5-1.2-1.2-1.2s-1.2,0.5-1.2,1.2v23.5H4.2L30.5,31l8.9,9.2c0.2,0.2,0.5,0.4,0.9,0.4c0,0,0,0,0,0c0.3,0,0.6-0.1,0.9-0.4
		l20.9-22l-0.4,6.7C61.5,25.5,62,26.1,62.7,26.1z"/>
	<path class="st0" d="M14.7,49.4V53c0,0.6,0.5,1.2,1.2,1.2s1.2-0.5,1.2-1.2v-3.6c0-0.6-0.5-1.2-1.2-1.2S14.7,48.7,14.7,49.4z"/>
	<path class="st0" d="M22.3,42.8V53c0,0.6,0.5,1.2,1.2,1.2c0.7,0,1.2-0.5,1.2-1.2V42.8c0-0.6-0.5-1.2-1.2-1.2
		C22.8,41.6,22.3,42.1,22.3,42.8z"/>
	<path class="st0" d="M30.1,37.3V53c0,0.6,0.5,1.2,1.2,1.2s1.2-0.5,1.2-1.2V37.3c0-0.6-0.5-1.2-1.2-1.2S30.1,36.7,30.1,37.3z"/>
	<path class="st0" d="M37.8,44.4V53c0,0.6,0.5,1.2,1.2,1.2s1.2-0.5,1.2-1.2v-8.6c0-0.6-0.5-1.2-1.2-1.2S37.8,43.8,37.8,44.4z"/>
	<path class="st0" d="M45.6,40v13c0,0.6,0.5,1.2,1.2,1.2S48,53.6,48,53V40c0-0.6-0.5-1.2-1.2-1.2S45.6,39.3,45.6,40z"/>
	<path class="st0" d="M53.4,33.8V53c0,0.6,0.5,1.2,1.2,1.2c0.7,0,1.2-0.5,1.2-1.2V33.8c0-0.6-0.5-1.2-1.2-1.2
		C53.9,32.7,53.4,33.2,53.4,33.8z"/>
</g>
</svg>
