<?xml version="1.0" encoding="utf-8"?>
<!-- Generator: Adobe Illustrator 24.3.0, SVG Export Plug-In . SVG Version: 6.00 Build 0)  -->
<svg version="1.1" id="Layer_1" xmlns="http://www.w3.org/2000/svg" xmlns:xlink="http://www.w3.org/1999/xlink" x="0px" y="0px"
	 viewBox="0 0 69.7 61" style="enable-background:new 0 0 69.7 61;" xml:space="preserve">
<style type="text/css">
	.st0{fill:#FFFFFF;}
	.st1{fill:#808080;}
	.st2{fill:#005FB5;}
	.st3{fill:none;stroke:#005FB5;stroke-width:1.5;}
</style>
<g>
	<path class="st0" d="M16,42.8V44h10.4v6.3h1.3v-7.6H16z"/>
	<path class="st0" d="M6.7,45.8c5.8,0,11.7,0,17.5,0c0,3.5,0,7,0,10.5c-5.8,0-11.7,0-17.5,0C6.7,52.8,6.7,49.3,6.7,45.8z M10.2,54.5
		c3.5,0,7,0,10.5,0c0-0.5,0.2-0.9,0.5-1.2c0.3-0.3,0.8-0.5,1.2-0.5c0-1.2,0-2.3,0-3.5c-1.1-0.1-1.6-0.7-1.8-1.7c-3.5,0-7,0-10.5,0
		c-0.1,1.1-0.7,1.6-1.8,1.7c0,1.2,0,2.3,0,3.5C9.7,53,10.1,53.5,10.2,54.5z"/>
	<path class="st0" d="M12.8,51c0-1.4,1.2-2.6,2.6-2.6c1.5,0,2.6,1.2,2.6,2.6c0,1.4-1.2,2.6-2.7,2.6C14,53.7,12.8,52.5,12.8,51z"/>
	<path class="st0" d="M19.9,51.9c-0.5,0-0.9-0.4-0.9-0.9c0-0.5,0.4-0.9,0.9-0.9c0.5,0,0.9,0.4,0.9,0.9
		C20.8,51.5,20.4,51.9,19.9,51.9z"/>
	<path class="st0" d="M11.1,50.2c0.5,0,0.9,0.4,0.9,0.9c0,0.5-0.4,0.9-0.9,0.9c-0.5,0-0.9-0.4-0.9-0.9S10.6,50.2,11.1,50.2z"/>
	<path class="st0" d="M57,8.2c1.7-1.7,3.4-3.4,5.1-5.1c-0.5-0.5-1-1-1.6-1.5c-0.5-0.5-0.5-1-0.1-1.3c0.4-0.4,0.9-0.4,1.4,0.1
		c2.5,2.5,5.1,5,7.6,7.5c0.5,0.5,0.5,1,0.2,1.4c-0.4,0.4-0.9,0.3-1.4-0.1c-0.5-0.5-1-1-1.5-1.5c-1.7,1.7-3.3,3.3-5.1,5
		c0.9,0.9,1.9,1.8,2.8,2.8c0.2,0.2,0.3,0.3,0.5,0.5c0.3,0.4,0.3,0.8,0,1.1c-0.3,0.3-0.8,0.4-1.2,0c-0.3-0.3-0.6-0.6-0.9-1
		c-0.2,0.2-0.4,0.3-0.5,0.5c-6.3,6.3-12.7,12.6-19,18.9c-0.8,0.8-1.1,0.8-2,0c-0.2-0.2-0.3-0.4-0.6-0.6C40,35.4,39.5,36,39,36.5
		c-0.3,0.3-0.5,0.6-0.8,0.8c-0.5,0.5-1,0.5-1.5,0c-0.5-0.5-1.1-1.1-1.7-1.7c-0.1,0.2-0.2,0.4-0.3,0.5c-1.7,1.7-3.3,3.3-5,5
		c-0.1,0.1-0.2,0.2-0.4,0.3c-0.4,0.3-0.8,0.3-1.2-0.1c-0.3-0.3-0.3-0.8,0-1.1c0.1-0.1,0.2-0.2,0.3-0.3c1.7-1.7,3.3-3.3,5-5
		c0.1-0.1,0.3-0.3,0.4-0.4c-0.6-0.5-1.1-1-1.6-1.6c-0.5-0.5-0.5-1,0-1.5c0.8-0.8,1.6-1.6,2.5-2.4c-0.3-0.2-0.6-0.5-0.8-0.7
		c-0.6-0.6-0.6-1,0-1.6c4-4,8-7.9,11.9-11.9c2.4-2.4,4.9-4.9,7.3-7.3c0.1-0.1,0.2-0.2,0.4-0.4c-0.3-0.3-0.6-0.5-0.9-0.8
		c-0.4-0.4-0.4-0.9-0.1-1.3c0.4-0.3,0.9-0.3,1.3,0.1C54.9,6.1,55.9,7.1,57,8.2z M42,33.9c4.1-4.1,8.2-8.1,12.3-12.2
		c-0.1,0-0.3,0-0.5,0c-4.2,0.1-8.4,0.2-12.6,0.3c-0.2,0-0.5,0.1-0.6,0.3c-1.6,1.6-3.2,3.2-4.8,4.8c-0.1,0.1-0.2,0.2-0.2,0.3
		C37.7,29.6,39.9,31.8,42,33.9z M42.8,20.2c0.1,0,0.2,0,0.2,0c4.3-0.1,8.6-0.2,12.8-0.3c0.2,0,0.5-0.1,0.7-0.3
		c1.2-1.2,2.4-2.3,3.5-3.5c0.4-0.4,0.8-0.8,1.1-1.1c-2.3-2.3-4.5-4.4-6.6-6.6C50.7,12.4,46.8,16.3,42.8,20.2z M60.1,11.3
		c1.7-1.7,3.4-3.3,5-4.9c-0.6-0.6-1.2-1.2-1.7-1.8c-1.6,1.6-3.3,3.3-5,4.9C58.9,10.1,59.5,10.7,60.1,11.3z M34,32.1
		c1.1,1.1,2.3,2.3,3.3,3.3c0.6-0.6,1.2-1.2,1.8-1.7c-1.1-1.1-2.2-2.2-3.3-3.3C35.2,30.9,34.6,31.5,34,32.1z"/>
	<path class="st0" d="M33.3,40.4c-0.5,0.5-0.9,0.9-1.4,1.4c0.9,1.1,1.8,2.2,2.7,3.3c2.2,2.8,2.6,5.9,1.1,9.1
		c-1.5,3.2-4.2,4.8-7.7,4.9c-2.9,0.1-5.8,0-8.7,0c-2.8,0-5.6,0-8.4,0c-4.5,0-8.1-3-8.8-7.4c-0.4-2.5,0.3-4.8,1.9-6.7
		c3.2-3.8,6.4-7.7,9.6-11.5c0.1-0.2,0.4-0.3,0.6-0.3c3.4,0,6.8,0,10.2,0c0.2,0,0.5,0.1,0.6,0.3c1,1.2,2.1,2.5,3.1,3.7l1.4-1.4
		c-1-1.2-2.1-2.4-3.1-3.7c-0.3-0.3-0.3-0.6-0.2-1c0.9-3,1.8-6,2.6-9c0.3-0.9-0.1-1.4-1.1-1.4c-0.9,0-1.6,0.3-2.3,0.7
		c-1.1,0.7-2.3,0.7-3.4,0c-1.7-1-3.5-1-5.2,0c-1.2,0.7-2.3,0.6-3.5,0c-0.7-0.4-1.4-0.6-2.2-0.7c-1.1-0.2-1.5,0.4-1.2,1.5
		c0.8,2.9,1.7,5.8,2.6,8.7c0.2,0.6,0.1,0.9-0.3,1.4C8.8,36.2,5.6,40,2.4,43.9c-2,2.4-2.8,5.3-2.2,8.4C1.1,57.4,5.5,61,10.7,61
		c2.8,0,5.7,0,8.5,0c2.8,0,5.6,0,8.4,0c0.6,0,1.2,0,1.8-0.1c4-0.7,6.9-2.9,8.3-6.7c1.5-3.8,0.8-7.3-1.8-10.4
		C35.1,42.6,34.2,41.5,33.3,40.4z M12,23.2c0.7,0.2,1.3,0.6,2,0.7c1.2,0.3,2.4,0,3.5-0.6c0.8-0.5,1.6-0.7,2.6-0.4
		c0.3,0.1,0.7,0.3,1,0.4c1.7,1,3.4,1,5.1,0c0.1,0,0.2-0.1,0.4-0.2c-0.4,1.4-0.8,2.7-1.2,4c-0.4,1.3-0.8,2.6-1.1,3.9
		c-0.1,0.3-0.2,0.4-0.4,0.4c-3.1,0-6.2,0-9.2,0c0,0-0.1,0-0.2,0C13.6,28.5,12.8,25.8,12,23.2z"/>
</g>
</svg>
