<?xml version="1.0" encoding="utf-8"?>
<!-- Generator: Adobe Illustrator 24.3.0, SVG Export Plug-In . SVG Version: 6.00 Build 0)  -->
<svg version="1.1" id="Layer_1" xmlns="http://www.w3.org/2000/svg" xmlns:xlink="http://www.w3.org/1999/xlink" x="0px" y="0px"
	 viewBox="0 0 61.6 51" style="enable-background:new 0 0 61.6 51;" xml:space="preserve">
<style type="text/css">
	.st0{fill:#FFFFFF;}
	.st1{fill:#808080;}
	.st2{fill:#005FB5;}
	.st3{fill:none;stroke:#005FB5;stroke-width:1.5;}
</style>
<g>
	<path class="st0" d="M58.8,20.8h-3V51h3V20.8z"/>
	<path class="st0" d="M48.8,25.1h-3V51h3V25.1z"/>
	<path class="st0" d="M38.8,29.6h-3V51h3V29.6z"/>
	<path class="st0" d="M28.8,24.3h-3V51h3V24.3z"/>
	<path class="st0" d="M18.8,33h-3v18h3V33z"/>
	<path class="st0" d="M8.8,44.5h-3V51h3V44.5z"/>
	<path class="st0" d="M61.6,11.8c-0.1,0.2-0.3,0.4-0.4,0.6c-0.4,0.3-0.9,0.5-1.3,0.2c-0.5-0.2-0.8-0.7-0.8-1.2c0-2,0-4.1,0-6.2
		c0-0.2,0-0.5,0-0.9c-0.2,0.2-0.4,0.4-0.6,0.5c-5.8,5.7-11.6,11.5-17.4,17.2c-1.1,1.1-1.6,1.1-2.6,0c-2.9-2.9-5.8-5.7-8.6-8.6
		c-0.1-0.2-0.3-0.4-0.4-0.6l-2.8,1.8L2.4,30.1c-0.1,0.1-0.2,0.1-0.3,0.2c-0.6,0.4-1.4,0.4-1.8-0.2c0,0-0.1-0.1-0.1-0.1
		c-0.4-0.6-0.2-1.4,0.4-1.8c0.1,0,0.1-0.1,0.1-0.1c2.5-1.6,5.1-3.2,7.7-4.8c6.7-4.2,13.4-8.5,20.1-12.7c0.9-0.6,1.4-0.6,2.2,0.2
		c2.9,2.9,5.9,5.8,8.8,8.7c0.1,0.1,0.2,0.2,0.2,0.2L57,2.5h-0.6c-2.1,0-4.2,0-6.3,0c-0.7,0.1-1.3-0.5-1.4-1.2c0-0.1,0-0.1,0-0.2
		C48.8,0.5,49.4,0,50,0c3.4,0,6.9,0,10.3,0c0.6,0,0.9,0.4,1.2,0.8L61.6,11.8L61.6,11.8z"/>
</g>
</svg>
